<svg xmlns="http://www.w3.org/2000/svg" viewBox="0 0 400 225" fill="none">
  <rect width="400" height="225" fill="#eeede6"/>
  <rect x="40" y="40" width="320" height="160" rx="8" fill="#f4f3ee" stroke="#d8d3c8" stroke-width="1"/>
  <rect x="40" y="40" width="320" height="32" rx="8" fill="#c96442"/>
  <text x="56" y="61" font-family="Georgia, serif" font-size="14" fill="#f4f3ee" font-weight="500">日历看板</text>
  <line x1="80" y1="30" x2="80" y2="50" stroke="#191817" stroke-width="2" stroke-linecap="round"/>
  <line x1="320" y1="30" x2="320" y2="50" stroke="#191817" stroke-width="2" stroke-linecap="round"/>
  <rect x="60" y="88" width="20" height="20" rx="2" fill="#c98a42"/>
  <rect x="100" y="88" width="20" height="20" rx="2" fill="#c98a42"/>
  <rect x="140" y="88" width="20" height="20" rx="2" fill="#6b7a3d"/>
  <rect x="180" y="88" width="20" height="20" rx="2" fill="#eeede6" stroke="#d8d3c8"/>
  <rect x="220" y="88" width="20" height="20" rx="2" fill="#eeede6" stroke="#d8d3c8"/>
  <rect x="260" y="88" width="20" height="20" rx="2" fill="#eeede6" stroke="#d8d3c8"/>
  <rect x="300" y="88" width="20" height="20" rx="2" fill="#eeede6" stroke="#d8d3c8"/>
  <rect x="60" y="128" width="20" height="20" rx="2" fill="#eeede6" stroke="#d8d3c8"/>
  <rect x="100" y="128" width="20" height="20" rx="2" fill="#c96442"/>
  <rect x="140" y="128" width="20" height="20" rx="2" fill="#eeede6" stroke="#d8d3c8"/>
  <rect x="180" y="128" width="20" height="20" rx="2" fill="#6b7a3d"/>
  <rect x="220" y="128" width="20" height="20" rx="2" fill="#eeede6" stroke="#d8d3c8"/>
  <rect x="260" y="128" width="20" height="20" rx="2" fill="#eeede6" stroke="#d8d3c8"/>
  <rect x="300" y="128" width="20" height="20" rx="2" fill="#eeede6" stroke="#d8d3c8"/>
  <rect x="60" y="168" width="20" height="20" rx="2" fill="#eeede6" stroke="#d8d3c8"/>
  <rect x="100" y="168" width="20" height="20" rx="2" fill="#eeede6" stroke="#d8d3c8"/>
  <rect x="140" y="168" width="20" height="20" rx="2" fill="#c98a42"/>
  <rect x="180" y="168" width="20" height="20" rx="2" fill="#eeede6" stroke="#d8d3c8"/>
  <rect x="220" y="168" width="20" height="20" rx="2" fill="#eeede6" stroke="#d8d3c8"/>
  <rect x="260" y="168" width="20" height="20" rx="2" fill="#eeede6" stroke="#d8d3c8"/>
  <rect x="300" y="168" width="20" height="20" rx="2" fill="#eeede6" stroke="#d8d3c8"/>
</svg>
